<svg xmlns="http://www.w3.org/2000/svg" width="400" height="388" version="1.0" viewBox="0 0 300 291"><path fill="currentColor" d="M136.7 8.6c-1.1 1.1-.8 4.9.4 6.1.6.6.9 2.3.7 3.9-.2 2.4-.8 2.9-3.5 3.2-4 .4-4.7 1.4-6.2 8.4-1.6 7.3-3.9 10.2-11.3 13.9-4.4 2.2-6.2 3.8-7 6-.8 2.3-1.9 3.1-5.4 4-2.5.7-7.1 2.8-10.2 4.9-21.1 13.6-26.5 42.5-10.9 58 1.9 1.9 3.3 3.9 3.1 4.5-.2.5.5 1.6 1.5 2.2 1.8 1.1 2.3.7 5.5-3.6 3.5-4.9 3.5-4.9 1.4-6.7-1.9-1.8-2-1.8-3.3 0-1.3 1.7-1.6 1.5-4.4-2.4-4.3-5.9-5.4-10.2-4.9-18.4.8-11.5 7.9-22.7 18.2-28.6 6.8-4 7.6-3.8 7.6 1 0 2.7 1.2 6.4 3.7 11.3 2.1 3.9 3.9 7.5 4.1 7.8.1.3-1.5 1.1-3.6 1.7-4.8 1.4-8.9 5.1-9.8 8.7-.9 3.6 1.7 8.8 5.5 11.1 3.4 2 3.6 2.9 2.1 6.9s-3 19.2-2.3 24c.5 4.1.8 4.4 5.7 6.3 4.4 1.7 8.8 2.8 19.4 4.8 1.7.4 2.2 1.1 2.2 3.8v3.3l-18 1.2c-9.9.6-19.3 1.4-20.8 1.6-2.7.5-3.1-.2-30.2-55-15.1-30.6-27.6-56-27.8-56.5-.2-.6 11.4-1 31.2-1 20.4 0 31.6-.4 31.6-1s-6.5-1-17.5-1H65.9l2.2-2.9c2.6-3.6 2-7.3-1.6-9.7-5.2-3.4-8.3 1.1-3.9 5.7 2.7 2.9 2.8 3.1 1.1 4.4-2.1 1.5-7.4.6-11.3-2-1.4-.9-4.1-4.1-6-7-4.5-7.1-7.4-8.9-13.8-8.9-9.7 0-16.5 6.9-16.6 16.7 0 8.9 5.2 16.4 16.8 24.2l6.3 4.2-5.2.5c-4.3.4-5.8 1.1-8 3.6-5.5 6.1-4.4 15.1 2.3 19.2 3.8 2.3 5.6 2.4 10.9.8 5.1-1.5 4.9-3.1-.6-4.6-4.7-1.3-7-4-6-7.2.9-2.7 5.2-3.7 8.4-1.9 5.2 2.9 6.5 10.6 3.5 20.9-3.8 13.5-4.4 17.3-3.3 22.8.6 2.9 2.1 6.5 3.3 8 1.4 1.7 2.6 4.8 3 8.1.4 3 1.6 7.2 2.7 9.3l2 3.9-3.8 7.1c-4.5 8.3-7.6 11-12.7 11-6 0-10.4-4.4-8.8-9 .5-1.7 2.2-1.5 2.2.2 0 2 4.8 5.6 7.5 5.6 1.2 0 3.5-1 5-2.2 8.2-6.4 6.9-21.7-2.5-28.1-3.3-2.3-10.2-2.2-12.3.1-2.3 2.5-2.1 7.8.3 10.2 2.4 2.4 3.9 2.5 6.6.5 1.8-1.4 1.8-1.5.1-4.6-2.1-3.8-1.1-5.3 2.7-4.3 5.7 1.4 9.7 10.7 7.6 17.7-1.5 4.9-4.3 7.7-7.9 7.7-4 0-5.7-2.3-4.2-5.6 1.4-3.2 1.4-3.4-.3-3.4-2 0-7.9 5.8-7.1 7 .3.5-.3 1-1.4 1-1.7 0-2.1.6-2.1 3 0 2.6.3 3 2.9 3 1.6 0 3.4.7 4.1 1.5 2.5 3 7.3 2.8 24.2-1.4 28.6-7.1 54.2-10.2 85.8-10.2 32.6-.1 57.3 2.8 87.4 10.2 8.8 2.1 16.7 3.9 17.6 3.9.9 0 3.3-.9 5.5-2s5-2 6.2-2c1.9 0 2.3-.5 2.3-3 0-2.2-.5-3-1.8-3-1 0-2.2-1.2-2.8-2.8-1-2.7-5.8-6.1-7-5-.3.4-.1 1.6.6 2.7 2.5 4.8-2.8 8.1-7.9 5-6.4-3.9-6.5-16.2-.1-22.2 5-4.5 9-3 5.8 2.3-1.6 2.5-.1 5.4 2.9 5.8 2.7.4 6.3-4.2 6.3-7.9 0-5.6-8.3-7.8-14.8-3.9-6.8 4.2-9.5 17.3-4.9 24.1 4.6 6.8 11.1 7.6 14.6 1.9 2-3.4 4.1-2.4 3.3 1.5-.5 3.1-4.5 5.7-8.7 5.8-5.3.1-9.6-3.6-13.3-11.7l-3.3-7.1 2-3.8c1-2.1 2.2-6.1 2.6-9 .4-2.9 1.3-5.9 2.1-6.7 4.9-5.7 5.6-15.7 1.9-28.1-3.2-10.3-3.4-18.2-.7-21.8 3.8-5.2 10.3-5.3 11-.2.5 3-2.3 5.9-6.4 6.7-4.5.8-5.2 2.2-1.7 3.5 10.6 4.1 18.3-.5 18.3-11.1 0-7.1-3.9-11-12-12l-4.5-.5 4.5-2.6c6.8-4 13.8-10.6 16.2-15.3 2.9-5.5 3.1-14.8.3-19.4-2.9-4.9-7.9-7.6-14.1-7.7-6.4 0-9.4 2-14.4 9.3-4 6-6.8 8.1-11.7 9.3-6.6 1.4-8.3-1.2-3.6-5.6 2.3-2 2.6-2.8 1.7-4.3-1.6-2.5-3.7-2.6-6.7-.2-3.3 2.6-3.5 6.5-.5 9.7l2.1 2.3h-17.6c-11.1 0-17.7.4-17.7 1s11.2 1 31.6 1c17.4 0 31.4.3 31.2.7-.1.5-12.8 25.9-28.1 56.7-25.8 52.1-27.9 55.8-30 55.2-1.2-.3-10.7-1.1-21-1.8l-18.8-1.2.3-3.1c.3-2.9.4-3 9.2-4.7 5-1 11.9-3.2 15.4-4.8l6.5-3-.5-11c-.3-6.1-.3-11-.1-11 1.5 0 6.5 4.6 7.8 7 2 3.8 1.9 7.4-.2 11.7-2.2 4.8-8.3 10.7-9.7 9.3-1.1-1.1-3.6.5-3.6 2.4 0 .7 1.2 2.7 2.8 4.5 1.9 2.3 3.2 3 4.5 2.6.9-.4 1.7-1.3 1.7-1.9 0-.7 1.6-2.4 3.5-3.8 7.4-5.3 12.3-15.9 11-23.8-1.3-7.6-10.3-16-17.2-16-1.7 0-4.2-2.8-3.1-3.4.2-.1 3.8-1.9 8-3.9 8.3-4 15.5-10.4 18.2-16 2-4.2 2.1-11.6.2-16-2.8-6.8-12.8-13.8-21.8-15.3-2.6-.5-3.8-1.2-3.8-2.3 0-3.4-3.9-7.8-9.8-10.9-7.1-3.8-9.9-6.9-10.8-12.1-.9-4.7-3-7.1-6.6-7.1-2.5 0-2.8-.3-2.8-3.3 0-1.8.5-3.8 1.1-4.4 2-2 .6-5.8-2.1-6.1-1.4-.2-2.9 0-3.3.4zm3.2 17.4c.6 0 1.1-.5 1.1-1 0-1.3 4-1.3 6 0 1.3.9 1.3 1.1 0 2-2.4 1.6-13.6 1.2-15-.5-1.3-1.5-1.4-1.5 3-2.8.8-.3 2 .2 2.6.9.6.8 1.6 1.4 2.3 1.4zm-99.3 2.4c3.9 3.9 4.4 7.7 1.6 11.4-1.3 1.6-2.6 2.3-4.3 2-2.1-.3-2.4-.9-2.7-4.9-.2-3.7-.7-4.8-2.3-5.2-2.7-.7-5.1 2-4.3 4.7.3 1.1 1.8 3.4 3.3 5.1 1.5 1.6 6 9.4 10 17.3L49 73l-7.3-5.7c-4.1-3.2-9.6-7.5-12.3-9.6-8.6-6.6-12.2-14.2-10.4-22.1.9-4 4.2-8.3 7.5-9.6 1.1-.5 4-.9 6.4-.9 3.6-.1 4.8.4 7.7 3.3zM252.8 27c4.5 2.8 6.6 8 5.9 14.8-.6 5.9-3.3 10.1-9.5 15.1C236 67.5 228.8 73 229.1 72.3c3.7-8.3 15.1-29.2 17.2-31.3 3.1-3.2 3.6-7.4 1-8.9-2.8-1.5-5.6.5-4.8 3.6.9 3.8-.3 6.3-3 6.3-4.6 0-7-6.7-4.1-11.9 2.9-5.2 11.4-6.7 17.4-3.1zm-112.3 3.4c1.1 0 3.2-.3 4.7-.7 2.4-.6 2.8-.3 3.8 2.8 1.3 3.9 6.8 9.2 10.6 10.1 2.1.5 2.4 1.1 1.8 2.8-1.5 4.6-1.5 12.8.1 19.7 1.5 6.9 1.5 7.4-.6 14.5l-2.2 7.4 2.7 5.2c1.5 2.8 2.3 5.5 1.9 5.9-1.6 1.5-16.1 4.1-25.3 4.6-10 .5-20.7-.7-20.3-2.3.1-.5 1-3 2-5.6 1.7-4.6 1.7-4.7-.7-9.7-1.3-2.8-2.7-5.1-3.2-5.1-.4 0-.8-.4-.8-.9s.9-.7 2-.4c1.3.3 2 1.4 2 2.9 0 1.3.5 2.4 1.1 2.4.6 0 .8-.8.4-1.9-.3-1.1-.1-2.2.5-2.6.6-.4 1 .4 1 1.9 0 1.4.5 2.6 1.1 2.6.6 0 .8-.9.4-2s-.2-2 .4-2c.6 0 1.1.6 1.1 1.2.1 1.1 2.3-1.8 2.4-3.1.1-.3-2.1-.6-4.8-.7-8.8-.6-12.6-5.3-12.6-16.1 0-8.5 2.2-12.1 9.9-16.3 6.8-3.7 10.1-8 10.1-13.2 0-2.8.1-2.8 4.3-2.1 2.3.4 5.1.7 6.2.7zm-87 11.4c1.6.9.9 1.1-4.1 1.2h-6.1l1.6-3.4 1.6-3.4 2.5 2.3c1.4 1.2 3.4 2.7 4.5 3.3zm180.3-.6c1.4 1.7 1.1 1.8-4.7 1.8h-6.3l4.4-3.3c3.4-2.7 4.4-3 4.7-1.8.1.9 1 2.4 1.9 3.3zM168 48.5c0 .3-1.4.5-3.1.5-2.7 0-3-.2-1.9-1.5.9-1.1 1.7-1.2 3.1-.4 1 .5 1.9 1.2 1.9 1.4zm.5 2.5c.4.6-.8 1-2.9 1-2 0-3.6-.5-3.6-1 0-.6 1.3-1 2.9-1 1.7 0 3.3.4 3.6 1zm.5 3c0 .5-1.6 1-3.5 1s-3.5-.5-3.5-1c0-.6 1.6-1 3.5-1s3.5.4 3.5 1zm-61 3c0 1.1-.5 2-1.1 2-.5 0-3.5 1.2-6.5 2.7-6.5 3.1-13.1 10-17.1 17.4-2.5 4.9-2.8 6.3-2.8 15.6v10.1l4.3 6.2c2.4 3.4 4.1 6.5 3.7 6.8-.4.4-1 .1-1.2-.6-.3-.6-1.1-1.2-1.8-1.2-1.1 0-2.4-1.8-2.5-3.5 0-.3-.9-1.4-2.1-2.6-1.1-1.1-1.8-2.6-1.6-3.2.2-.7-.2-1.8-1-2.5-1.6-1.7-1.7-4.2 0-4.2.6 0 .4-.5-.5-1.1-2-1.1-2.4-4.9-.6-4.9.8 0 .9-.3.1-1.1-1.3-1.3-.5-5.9 1.1-5.9.8 0 .8-.2 0-.8-1.4-.9 0-5.2 1.6-5.2.6 0 .8-.5.5-1-1-1.6.5-5 2.1-5 .8 0 1.3-.4 1-.9-1-1.6.5-4.1 2.5-4.1 1.1 0 1.6-.5 1.3-1.3-.6-1.8 2.1-4.1 3.7-3.1.9.5 1 .2.6-.9-.7-2 2.4-4 4.7-3.1 1.2.4 1.5.2 1-.9-.6-1.6 2.8-3.3 4.6-2.2.5.3 1 .1 1-.5 0-.8 2.5-2.4 4.8-2.9.1-.1.2.8.2 1.9zm68.5.6c2-.1 2.9.3 2.7 1.3-.2.9.3 1.1 1.3.7 2.1-.7 5.8 1.1 4.9 2.5-.3.6 0 .9.7.8 2.6-.4 5 1.3 4.4 3.1-.4 1.3-.1 1.7 1.2 1.6 1.4-.1 1.8.6 1.6 2.6-.1 2 .2 2.5 1.3 2.1 1-.4 1.4.2 1.4 2.1 0 1.4-.6 2.6-1.2 2.7-1 0-1 .2 0 .6 2 .8 1.4 4.4-.9 5-1.6.4-1.7.8-.7 1.4 1.8 1.1-.3 4.5-2.6 4.1-1.1-.2-1.4.2-.9 1.4.8 2.1-2.2 4.5-4.5 3.7-1-.5-1.3-.3-.8.6 1.2 1.9-2.5 4.3-4.3 2.8-1.2-1-1.4-.9-.8.6.9 2.3-3.1 4-5.2 2.3-1.2-.9-1.3-.8-.8.6.5 1.3 0 1.9-1.8 2.4-1.3.3-2.8.3-3.3 0-.6-.3-1.3.1-1.6 1-.5 1.2-1.4 1.5-3.7 1-1.6-.3-2.8-.2-2.5.3.3.5-.6 1.2-2.1 1.6-1.6.4-2.9.2-3.3-.5-.5-.8-.9-.7-1.3.4-.7 1.8-5.7 2.2-5.7.5 0-.6-.7-.3-1.6.5-1.9 1.9-3.6 2-5.2.4-.9-.9-1.2-.9-1.2 0 0 1.6-4.7 1.5-5.4-.1-.5-1-.7-1-1.2 0-.3.7-1.6 1.3-2.9 1.3-1.3 0-2.6-.6-2.8-1.3-.4-.9-.7-.9-1.4 0-1 1.4-5.3.6-5.3-1.1 0-.7-.3-.6-.8.2-1.1 1.6-6.2-.1-6.2-2 0-.9-.3-.9-.9.1-.8 1.2-1.2 1.2-2.5.2-.9-.8-1.6-2-1.6-2.7 0-.7-.6-1.1-1.4-.8-.8.3-1.9-.3-2.5-1.5-1.9-3.4-1.2-4.6 1.3-2.2 8.9 8.4 35.7 9.4 58.4 2.2 12.8-4.1 23-10.9 25.3-16.8 1.3-3.6 1.1-9-.6-12.2-2.6-5.1-8.7-9-18.2-11.6-.7-.2-.9-1.3-.6-2.6.5-1.8.8-2 1.7-.7.6.8 2.5 1.4 4.1 1.4zm-8.2.4c-.4 1.5-1.3 2-3.7 1.9-3-.2-3-.2-.3-.6 1.5-.2 2.7-.8 2.7-1.3s-1.2-1.1-2.7-1.3c-2.3-.3-2.2-.4.9-.6 3.2-.1 3.5.2 3.1 1.9zm14.3 8.5c7.5 4.9 8.3 14 1.9 20.5-3.2 3.3-14.9 10-17.3 10-1.4 0-5.2-8-5.2-11 0-1.6 1.9-7.9 4.3-13.9l4.2-10.9 4.8 1.8c2.7 1 6 2.6 7.3 3.5zM44.5 73.1c1.9 1.3 4.4 4.2 5.7 6.4 2 3.4 2.3 5.3 2.2 13-.1 5-1.1 13.4-2.3 18.9-1.1 5.5-2.1 11.4-2.1 13.2 0 4.8-1.6 5-3.4.4-2.2-5.6-2-11.2.9-20.5 1.3-4.4 2.7-9.8 3.1-12.1 1.3-9.2-4-17.4-11.3-17.4-8.4 0-10.1 9.3-2.5 13.4l2.7 1.5H34c-7.3 0-11.1-7.2-7.8-14.5 2.6-5.6 11.8-6.7 18.3-2.3zm205.4.3c2 2.1 2.6 3.6 2.6 7 0 5.8-3.3 9.6-8.4 9.6h-3.5l2.4-1.6c3.6-2.4 5-4.4 5-7.1 0-3.5-3.4-6.3-7.7-6.3-4.4 0-7.4 2.2-9.8 6.9-2.2 4.3-1.6 12.8 1.5 21.5 2.8 8.2 3.5 15.2 1.8 20-1.6 4.8-3.8 5.9-3.8 1.9 0-1.5-1.2-8.4-2.6-15.3-4.6-22.1-2.4-32.8 7.8-37.9 5.5-2.8 11-2.3 14.7 1.3zM67.7 111c.2.3-1.7.4-4.1.2-3.8-.3-4.9 0-7 2.2-3 2.9-3.3 4.8-1 7 2.3 2.3 3.1 2 6.2-2.4 3.3-4.9 6-4.9 8.4-.2 2.1 4.3 1 8.7-3.3 12.6-2.9 2.6-3.7 2.8-9.5 2.4-3.5-.2-6.9-.9-7.4-1.4-.7-.7 0-6 2-16.3 1.6-8.5 3-18.6 3-22.5l.1-7.1L61.2 98c3.4 6.9 6.3 12.7 6.5 13zm155.2-17.3c0 4.3 1.2 13.2 2.6 19.8 3.2 15.3 3.2 18.1.3 18.9-4.1 1-10.8.6-13.7-.9-5.9-3-7.5-11.6-3-16.3 2.4-2.6 4.3-2 5.9 1.9 2.4 5.7 8 5.9 8 .3 0-3.9-3.8-6.6-8.7-6.2-2.4.2-4.3.2-4.3.1 0-.4 12.4-25.3 12.6-25.3.1 0 .2 3.5.3 7.7zm-104.5-5.2c.3 1-.1 1.8-1.2 2.1-.9.2-3.8 1.6-6.4 2.9-4.4 2.3-4.8 2.4-4.8.7 0-4.5 10.9-9.5 12.4-5.7zm-.4 4.9c0 .1-.5 1.7-1.1 3.5-1.2 3.4-3.3 4-6.4 1.7-1.8-1.3-1.7-1.5 1.5-3.5 3.1-1.9 6-2.7 6-1.7zm50 13.4c0 .5-1 1.4-2.2 2.1-2.2 1.1-2.1 1.1.5.6 4.2-.8 3 1.7-1.4 2.9-2.2.6-2.8 1.1-1.7 1.3.9.2 2.6-.1 3.7-.6 1.3-.7 2.2-.8 2.6-.1.6.9-3.3 3-5.5 3-.5 0-1.2.5-1.6 1.2-.5.8-.2.9 1 .5 4-1.6 6.6-1.9 6.6-.8 0 .5-1.9 1.6-4.2 2.2-2.4.7-4.7 1.6-5.2 2.1-1.6 1.3 1.9.9 5.9-.8 2-.8 4-1.2 4.3-.9 1 .9-1.7 2.3-7.8 4.2-3 .9-4.9 1.8-4.3 2 .7.3 3.6-.3 6.4-1.2 2.7-.9 5.3-1.4 5.6-1.1.7.7-7 4.1-11.5 5.1-1.8.3-3.2 1.1-3.2 1.6 0 1.1 1.7.7 9.4-2.2 4.5-1.7 6.9-1.8 5.3-.3-1 1.1-13.7 5.4-15.7 5.4-1.1 0-2 .5-2 1.1 0 1.4 4.8.4 12.3-2.6 3.6-1.4 5.7-1.8 5.7-1.1 0 1.5-7.2 4.4-14.8 5.9-7.5 1.5-9.6 3.2-2.7 2.2 4.3-.6 8.4-1.9 15.8-5 .9-.4 1.7-.3 1.7.2 0 1.9-10.7 5.9-22 8.2-3.7.7-4 .9-1.5 1 3.8.1 13.4-2.3 19.2-4.9 5.9-2.6 5.5-.9-.4 1.9-5.7 2.6-14.7 5.1-18.6 5.1-3.8 0-9.1 5.2-8.2 8 .5 1.4.2 2-.9 2s-1.6-.9-1.6-2.8c-.1-4.8-2.3-6.5-11.3-8.3-8.3-1.7-16.4-4.5-15.5-5.4.3-.3 2.4.2 4.8 1 2.3.8 4.7 1.5 5.3 1.5 2 0-.3-1.4-5-2.9-2.6-.9-4.8-2.2-5.1-2.8-.2-.9.6-.9 3.2.2 1.9.8 4.3 1.5 5.3 1.4 1.3 0 1.1-.3-.7-1.1-7.6-3.1-9.2-3.9-8.7-4.5.4-.3 2 0 3.6.7 1.7.6 3.6 1 4.3.7.7-.2-.6-1-2.9-1.7-2.4-.7-4.3-1.9-4.3-2.6 0-1 .7-1 3.5.2 1.9.8 3.5 1 3.5.5s-1.6-1.5-3.5-2.1c-1.9-.6-3.5-1.6-3.5-2.2 0-.6.7-.7 1.5-.4.8.3 2.2.9 3 1.2.8.3 1.5.2 1.5-.4 0-.6-1.3-1.3-3-1.7-1.6-.4-3-1.1-3-1.7 0-.6 1-.8 2.5-.4 1.4.4 2.5.2 2.5-.4 0-.5-.9-1-2-1-2.5 0-2.7-2-.2-2 1.5-.1 1.5-.2-.2-1.5-1.1-.8-1.5-1.5-.9-1.5s1.1-1.1 1.1-2.5c-.1-1.4.2-2.8.5-3.1.2-.3 3.5 0 7.3.7 9.1 1.6 29.8.6 38.9-1.9 8.8-2.4 8.5-2.4 8.5-1.4zm6 5.3c0 .5.5.7 1 .4 1.7-1.1 5.2.5 4.6 2.2-.4 1-.1 1.3 1.3.8 2.2-.7 4.4 1.6 3.5 3.9-.4 1.2-.2 1.5.9 1.1 2-.8 3.4 4.4 1.5 5.6-1 .7-.9.9.5.9 1.9 0 2 .4 1.1 3.7-.4 1.3-1.1 2-1.6 1.7-.6-.4-.8.1-.4 1.3.8 2.6-.2 5.3-2.1 5.3-.8 0-1.1.5-.8 1.1 1 1.4-2.4 4.9-4.1 4.2-1-.3-1.2 0-.8 1 .7 1.9-3.6 5.1-5 3.7-.6-.6.8-2.7 3.7-5.9 2.6-2.8 5.2-6.2 5.7-7.6 2.6-6.9-.1-14.8-6.2-18.4-5.8-3.4-7.6-6.1-4.3-6.1.8 0 1.5.5 1.5 1.1zm-80.9 4.6c-1.5 2.9-4 5.9-4.1 5 0-1.4 3.3-6.7 4.3-6.7.4 0 .3.8-.2 1.7zm-15.4 13.9c2.9 6.1 3 6.4 1 5.7-7.3-2.7-18.3 1.3-23.2 8.4l-2.4 3.7-1.4-3.5c-.8-1.9-1.8-5.1-2.1-7.2-.6-3.4-.5-3.8 1.1-3.3 5.9 1.7 9.6 1.7 13.8.1 4.5-1.7 8.5-5.9 8.5-8.9 0-3.1 1.5-1.5 4.7 5zm128.1-2.4c2.3 4.6 9.3 8.1 14.7 7.4 2.2-.3 5-.8 6.1-1.2 2.1-.5 2.1-.4 1.4 3.8-.5 2.3-1.4 5.6-2 7.3-1.1 2.9-1.2 2.9-2.6 1-7-9.6-16.6-13.5-24.7-10-1.5.6-1.2-.5 1.4-5.8 1.8-3.7 3.5-6.5 3.7-6.2.2.2 1.1 1.8 2 3.7zM80.5 140.6c4.6 4.9 2.6 14.7-3.5 17.9-5.5 2.8-11 1.6-18.7-4.2-1.8-1.3-3.3-3-3.3-3.7 0-2 6.6-9.2 10.2-10.9 1.8-.9 5.5-1.7 8.1-1.7 3.9 0 5.2.5 7.2 2.6zm132.1-1c1.9.9 5.1 3.7 7.1 6.1l3.6 4.4-2.9 3.1c-6.4 6.8-16 8.7-21.3 4.2-5.7-4.8-6-15.1-.4-18.3 2.7-1.6 10-1.3 13.9.5zM88.7 153c2.4 5.5 2.6 5.2-5.1 6.5l-3.9.6 2.6-3.1c1.6-1.8 2.7-4.4 2.7-6.1 0-4.2 1.2-3.5 3.7 2.1zm106.7 3.9c1.1 1.2 1.7 2.3 1.5 2.5-.5.5-8.8-.9-9.5-1.7-.3-.2.5-2.6 1.8-5.2l2.3-4.7 1 3.5c.6 1.9 1.9 4.4 2.9 5.6zM64 160.7c3.3.6 3.1 2.3-.2 2.3-1.2 0-3.5.4-5.2.9-4.9 1.5-12.1 3-12.4 2.6-.2-.1.8-1.8 2.1-3.8 1.3-1.9 3-4.9 3.7-6.6l1.2-3.1 4 3.5c2.1 2 5.2 3.8 6.8 4.2zm166.1 2.9 2.3 3.7-2.5-.7c-2.6-.8-9.3-2.3-15.1-3.2-2.1-.4-3.8-.9-3.8-1.3 0-.3 2-1.4 4.4-2.4 2.4-1 5.4-2.9 6.7-4.3l2.3-2.5 1.7 3.5c.9 2 2.7 5.2 4 7.2z"/><path d="M133.6 41.6c-.9 2.4-.7 5.6.3 5 1.2-.8 2-5.5 1.1-6.1-.4-.3-1.1.2-1.4 1.1zM130.7 51.7c-.3 1.6-.3 3-.1 3.3.7.7 2.4-2.3 2.4-4.3 0-2.7-1.7-2-2.3 1zM129 61c0 1.6.5 3 1 3 .6 0 1-1.4 1-3 0-1.7-.4-3-1-3-.5 0-1 1.3-1 3zM154.5 76c-1.2 2-8.7 3.2-12.9 2.1-2.2-.5-4.2-.9-4.3-.7-.2.2.3 1.6 1.2 3.2 1 2 1.5 2.4 1.5 1.1 0-1 .4-1.6 1-1.2.5.3.7 1.2.3 2-.3.8 0 1.5.5 1.5.6 0 1.3-.8 1.5-1.8.3-1 .5-.6.6 1 0 1.6.6 2.8 1.2 2.8.7 0 .9-1 .7-2.5-.3-1.4-.1-2.5.3-2.5.5 0 .9 1.1.9 2.5s.5 2.5 1.1 2.5c.6 0 .8-.9.4-2-.3-1.1-.3-2.5.2-3.2.5-.9 1-.1 1.4 2.2l.6 3.5.2-3.3c.1-3.7 1.7-4.3 2.4-1 .4 1.9.5 1.8.6-.6.1-2.4.3-2.7 1.6-1.6s1.5.8 1.5-1.9c0-3-1.3-4.1-2.5-2.1zM129 78.4c0 2.4 1.2 4.1 2.2 3 .8-.7-.3-5.4-1.3-5.4-.5 0-.9 1.1-.9 2.4zM131.5 87.7c.8 3.1 1.3 3.9 2 3.1.9-.9-.6-5.8-1.7-5.8-.6 0-.7 1.1-.3 2.7zM131 117.1c0 1.7.4 2.8 1 2.4.6-.3 1-1.7 1-3.1 0-1.3-.4-2.4-1-2.4-.5 0-1 1.4-1 3.1zM130 127.6c0 2.1.4 3.3 1 2.9.6-.3 1-1.9 1-3.6 0-1.6-.4-2.9-1-2.9-.5 0-1 1.6-1 3.6zM135.2 141.2c-.7.7-1.2 1.7-1.2 2.2 0 .6.5.3 1.1-.7 1.3-2.2 4.7-2.2 7.1 0 1 .9 1.8 1.2 1.8.7 0-1.8-2.4-3.4-5-3.4-1.4 0-3.1.5-3.8 1.2z"/><path d="M137.3 142.7c-2.2.8-1.4 2.5.8 1.8 1.6-.5 2-.3 1.6.6-.2.8-1.1 1.3-1.8 1.1-1.1-.3-1.2-.1-.1.9 1 1.1 1.5 1 2.9-.3 1.3-1.4 1.4-2 .3-3.2-1.3-1.7-1.7-1.8-3.7-.9zM116 171.8c-2.1 1.7-2.2 2.3-1.5 10 .6 6.7 1.1 8.4 2.6 9.3 2.8 1.4 5.8.2 6.5-2.8 1.1-4.2-.5-15.7-2.3-17.1-2.2-1.6-2.7-1.5-5.3.6zm4.4 5.9c.9 5.6.7 10.1-.4 10.8-1.3.8-1.7-.6-2.5-8.3-.5-5-.3-6.2.8-6.2.9 0 1.7 1.5 2.1 3.7zM128.7 170.6c-.9 1 .4 3.4 1.9 3.4 1.1 0 1.4 1.9 1.4 8.5 0 6.9.3 8.5 1.5 8.5s1.5-1.6 1.5-8.5.3-8.5 1.5-8.5c.8 0 1.5-.9 1.5-2 0-1.7-.7-2-4.3-2-2.4 0-4.6.3-5 .6zM143 178.8c0 5-.3 9.7-.6 10.6-.4 1.2 0 1.6 1.5 1.6 1.8 0 2.1-.6 2.1-4.5 0-3.3.4-4.5 1.5-4.5s1.5 1.2 1.5 4.4c0 4.2 1.2 6.7 2.3 4.9.3-.5.7-5.3.8-10.8.3-8.8.1-10-1.4-10.3-1.4-.3-1.7.5-1.7 4.2 0 3.5-.4 4.6-1.6 4.6-1.2 0-1.5-.9-1.2-4.2.2-3.4-.1-4.3-1.5-4.6-1.5-.3-1.7.7-1.7 8.6zM156.9 180c-.1 4.9-.2 9.6-.3 10.2-.1.7.7 1.4 1.7 1.6 1.4.3 1.7-.4 1.7-5 0-2.9.3-7.7.6-10.6.6-4.8.5-5.2-1.5-5.2s-2.1.5-2.2 9zM165.5 179.7c-.4 4.9-.9 9.6-1.1 10.5-.4 1.3 0 1.8 1.5 1.8 1.8 0 2.1-.6 2.1-4.8 0-3.4.3-4.3 1-3.2.5.8 1 3 1 4.8 0 2 .6 3.5 1.5 3.9.9.3 1.7.4 1.9.2.2-.2.7-5 1.1-10.7.6-8.9.5-10.2-.9-10.2-1.2 0-1.6 1.1-1.6 4.6 0 2.7-.4 4.3-1 3.9-.5-.3-1-2.6-1-5.1 0-3.7-.3-4.4-1.9-4.4-1.7 0-2 1-2.6 8.7zM100.3 173.4c.3.7.8 5.4 1.2 10.4l.8 9.2 4.1-.4c4.7-.4 5.7-2.9 1.5-3.4-2.6-.3-2.7-.6-3.4-8.8-.6-7.5-.9-8.4-2.7-8.4-1.3 0-1.8.5-1.5 1.4zM182.1 173.8c-1.6 1.3-2.2 3.4-2.7 9.4-.7 8.6.1 10.8 4.2 10.8 2.7 0 3.9-1.9 4.8-7.8.6-4 .5-4.2-1.8-4.2s-2.5.4-2.3 4.1c.1 2.6-.3 4.4-1 4.6-1.5.5-1.6-3.7-.5-10.1.8-4.2 3.2-6.2 3.2-2.7 0 2.3 2.6 2.9 3.3.8.7-2.2-.4-4.4-2.8-5.5-1.9-.9-2.8-.8-4.4.6zM88.1 173.9c-2.1 1.4-1.2 15.9 1.1 18.8 1.3 1.6 5 1.7 6.6.1 1.7-1.7 1.5-5.8-.3-5.8-.8 0-1.5.9-1.5 2s-.6 2-1.4 2c-1.2 0-2.6-6.5-2.6-12.8 0-2.7 2-2.9 2.7-.2.7 2.8 3.3 2.5 3.3-.3 0-4.1-4.2-6.1-7.9-3.8zM253.1 191.2c.1 10.7.4 17.3.9 15.8 1.2-3.7 1.2-32.8 0-33.5-.7-.4-1 5.7-.9 17.7zM23 178.9c0 2.2.5 4.3 1 4.6.6.4 1-1.2 1-3.9 0-2.5-.4-4.6-1-4.6-.5 0-1 1.8-1 3.9zM68.4 178.4c.3 1.4.9 3.8 1.2 5.2 1.1 4.3-1.4 1.9-2.7-2.6-1.1-3.6-3.1-5.2-4.2-3.3-.3.5.3 5.1 1.2 10.3 1.4 7.7 2.1 9.6 3.5 9.8 1.5.3 1.8 0 1.2-1.9-.3-1.3-.9-3.7-1.3-5.3-.9-4.3 1.1-2.5 2.7 2.3.9 2.9 1.9 4.1 3.2 4.1 1.7 0 1.9-.5 1.2-3.3-.3-1.7-1.2-6.3-1.9-10.2-.9-5.4-1.5-7.1-3-7.3-1.4-.3-1.7.1-1.1 2.2zM203.1 183.7c-.7 4.3-1.5 9-1.8 10.5-.4 2.1-.1 2.8 1 2.8s1.9-1.4 2.4-4.3c.6-2.6 1.4-4.2 2.3-4.2.8 0 1.4.5 1.3 1-.1.5-.4 2.7-.8 4.7-.6 3.1-.4 3.8.8 3.8 1.5 0 2.2-2.5 4.3-14.5.3-1.7.8-3.8 1-4.8.4-1.2 0-1.7-1.5-1.7-1.7 0-2.1.6-2.1 3.2 0 3.9-1.3 6.3-2.9 5.4-1-.7-.9-2.6.6-7.9.3-1.2-.1-1.7-1.5-1.7-1.6 0-2.1 1.2-3.1 7.7zM217.5 185.5c-.9 4.1-1.5 8.9-1.3 10.7.3 2.9.7 3.3 3.5 3.6 2.6.3 3.5-.1 4.3-2 .9-2.3 4-15.1 4-16.9 0-1.9-3-.8-3.5 1.3-.3 1.3-1.1 5-1.7 8.2-.7 3.3-1.9 6.1-2.6 6.4-1.6.5-1.5-3 .3-9.8 1.8-6.8 1.8-7.7.1-8.3-1.1-.4-1.8 1.3-3.1 6.8zM51 183.7c0 8.9 1.3 17.3 2.6 17.3.8 0 1.4-.9 1.4-2s.7-2 1.5-2 1.5.7 1.5 1.5c0 1.5 2.1 2.1 3.2.9.3-.3-.9-4.2-2.8-8.7-1.9-4.5-3.4-8.7-3.4-9.4 0-.7-.9-1.3-2-1.3-1.6 0-2 .7-2 3.7zM40 182.7c-.1 3.1 4.7 19.6 5.8 20 2.2.9 2.4-.3.8-6.4-.9-3.2-2-7.7-2.6-10.1-.7-2.5-1.7-4.2-2.5-4.2s-1.5.3-1.5.7zM231.2 190.2c-1.1 4.6-2.3 9.1-2.7 10-.5 1.3.1 1.8 3.1 2.4 3.2.6 4 .3 5.7-1.7 1.3-1.6 1.7-3.3 1.4-5.4-.3-1.8.1-3.8.9-5 2-2.7 1.7-5.2-.8-6.9-4.4-3.1-5.4-2.2-7.6 6.6zm6.8-3c0 2.1-1.7 4.1-2.8 3.4-1.4-.8-.3-4.6 1.4-4.6.8 0 1.4.6 1.4 1.2zm-2 8.2c0 2.5-1.2 4.6-2.6 4.6-1.6 0-1.6-.5-.8-3.8.7-2.4 3.4-3.1 3.4-.8zM32.5 188.6c.3 2.6.9 5.3 1.2 6 .3.8.1 1.4-.4 1.4s-1.7-2.3-2.7-5c-1-2.8-2.4-5-3.2-5-2 0-1.8.8 2.7 10.6 4.9 10.4 4.4 9.8 6.2 9.1 1.2-.4 1.2-2 .1-10.4-.7-5.4-1.3-10.1-1.4-10.6 0-.4-.7-.7-1.6-.7-1.4 0-1.5.7-.9 4.6zM112.3 203.1c-18.1 1.4-42.6 5.8-58.3 10.5-23.3 7-26.6 8.8-27.6 15.5-1.6 9.8 13 14.1 16.4 4.8 1.6-4.3-1.5-8.7-5.1-7.3-.8.3-2.1 2.1-3.1 4-1.1 2.4-2.2 3.4-3.4 3.2-2.3-.4-2.8-5.3-.8-8.3 3.9-5.9 23.5-7.9 34.8-3.6 14.9 5.8 20.4 22.4 8.2 24.7-4.4.8-7.9-.1-10.4-2.8-5-5.4 0-10.8 7.9-8.7 3 .9 2-2.1-1.6-4.5-4.6-3.1-9.6-3.4-14.1-.6-4.1 2.5-5.5 6.1-4.9 12.7.9 8.7 6.2 14.1 16.1 16.3 9.3 2.1 15.9-.5 29.9-11.4 7.3-5.7 11.3-6.1 15.8-1.7 2.9 3 3.4 4.6 2.3 7.5-.7 1.9-5.6 2.1-8.4.4-1.6-1.1-2.3-1-3.7.5-3.8 3.8 3.5 8.5 8.7 5.5l2.8-1.6 1.1 4c1.5 5 5.1 6.9 8.9 4.7 1.5-.8 2.8-2.2 3-3.2.4-2.2-2.5-3.3-4.9-1.9-2.9 1.9-4.6 1.4-5.3-1.3-.9-3.7.9-6.5 4.2-6.5 5 .1 7.3 2.2 16.5 15 1.6 2.4 1.8 2.4 3 .6 8.4-12.8 12.9-16.5 18.2-15.2 2.3.6 2.6 1.1 2.3 4.4-.3 3.9-1.3 4.3-6.5 2.7-1.6-.5-2.5-.3-2.9.9-.8 2 2.2 5.6 4.6 5.6 2.9 0 7-3.9 7-6.7 0-2.2.3-2.4 2.3-1.8 5.4 1.7 7.3 1.6 9.7-.4 2.1-1.6 2.3-2.3 1.4-3.8-.7-1.1-2.1-1.7-3.5-1.5-8 1.1-9.4.8-9.7-1.9-.5-4.2 4.1-8.9 8.7-8.9 4 0 6.2 1.2 13.1 7.3 12.4 10.9 28.2 12.1 37.6 2.9 10.1-10.1 5-26.6-7.7-24.9-4.3.6-9.9 4.1-9.9 6.3 0 1.7-.1 1.7 3.9.3 2.5-.9 3.6-.8 5.6.5 3.3 2.2 3.2 5.1-.4 8.7-4.1 4.1-10.1 4.1-14.2 0-3.4-3.5-3.6-5.1-.8-10.7 6.1-12.6 28.9-18.1 44.4-10.7 3.5 1.7 5.9 5.8 5.3 9-.5 2.9-4.1 2.2-5.7-1.2-2.3-5-4.1-5.5-7.2-2.4-4.2 4.2.2 10.9 7 10.9 5.3 0 8.1-3.2 8.1-9.2 0-6.4-3.1-8.8-17.3-13.2-39.3-12.3-79.1-16.7-121.4-13.5zm47.5 2.4c.2.2-.6 2.1-1.8 4.4-1.6 3.2-1.7 4.1-.6 4.1.7 0 2.3-2.1 3.5-4.6 1.6-3.3 2.6-4.4 3.9-4 .9.2 4.9.7 8.7 1.1 11.7 1 37 5.7 47.8 8.8l3.9 1.1-6.2 1.2c-3.4.7-8.1 2.3-10.5 3.4-4.7 2.3-11.5 9.1-11.5 11.4 0 .8-.5 1.8-1.1 2.1-.7.5-1-1.6-.8-6.5.2-5.4-.1-7.4-1.2-8-.8-.4-7.5-1.6-14.9-2.6-25.2-3.5-71.7-2.4-94.4 2.2l-2.9.6.7 7.5c.5 5.1.4 7.3-.4 6.8-.5-.3-1-1.2-1-1.9 0-2.3-6.7-9.1-11.3-11.4-2.6-1.3-7.5-2.9-10.9-3.6-6.7-1.4-6.2-2 2.7-3.6 2.2-.4 8.3-1.7 13.5-2.8 8.1-1.8 17.2-3.2 36.1-5.7 3.3-.4 3.6-.2 5.7 4 1.2 2.5 2.6 4.5 3.2 4.5 1.4 0 1.3-.5-1-5l-2-3.9 9.2-.4c8.9-.3 33 .2 33.6.8zm-13.5 13.4c.5 0 .5.7 0 1.3-.4.7-.9 3.5-1 6.3-.6 10-.6 10-3.3 9.7-1.4-.2-2.7-.6-3-.9-1-1-.8-15.8.3-16.5.9-.6 2.6-.5 7 .1zm-31.3 5.8c0 2.1.3 5.5.6 7.5.5 3.1.4 3.8-1 3.8-.9 0-1.6-.6-1.7-1.3 0-1-.2-1-.6 0-.2.7-1.1 1.3-1.9 1.3-1 0-1.4-1.3-1.4-4.8 0-2.6-.3-5.8-.7-7.1-.5-2.1-.3-2.3 1.5-1.9 1.2.4 2.5.2 2.8-.3 1.2-2 2.4-.7 2.4 2.8zm10.8-1c.4 2.5-2.2 3.3-3.1 1-.3-.6-.6 1-.6 3.8 0 3.9.2 4.6 1 3.2 1.3-2.2 2.9-2.2 2.9.1 0 1.8-1.8 4.2-3.1 4.2-3.1 0-5.2-8.5-3.3-13.5 1-2.5 5.8-1.6 6.2 1.2zm10.2-1.2c0 .9-.6 1.2-1.5.9-1.9-.8-2.1 3.1-.2 4 1 .5 1 .7 0 1.2-1.8.8-1.6 3.4.2 3.4.8 0 1.5.7 1.5 1.5 0 1-1 1.5-3 1.5h-3v-14h3c2 0 3 .5 3 1.5zm18.5.6c.7 2.2-1.1 6.9-2.7 6.9-.4 0-.8.7-.8 1.5 0 .9.9 1.5 2.1 1.5 1.2 0 1.9.5 1.6 1.2-.2.8-1.6 1.2-3.3.9-5.3-.6-5.6-1.6-1.9-5.9 1.4-1.7 2.5-3.8 2.5-4.8-.1-1.8-.1-1.8-1.1-.2-1.3 2.3-2.9 2.3-2.9 0 0-2.4.9-3.2 3.6-3.2 1.4 0 2.5.8 2.9 2.1zm10.3-.4c.5 1 .7 4.1.4 7-.3 4.1-.8 5.4-2.3 5.8-3.7 1.2-5.1-1.2-4.3-7.4.4-3.1 1.2-5.9 1.8-6.3 1.8-1.3 3.5-.9 4.4.9zm-60.3 4c.3 2.7.7 5.8.9 7.1.4 2.4-1.1 4-2.4 2.6-.4-.5-1-3.9-1.3-7.7-.5-5.4-.3-6.7.8-6.7.9 0 1.6 1.6 2 4.7zm71.3-3.5c1.8 1.8 1.5 3.3-1.3 6.6-3 3.6-3.1 4.2-.4 4.2 1.2 0 1.9.5 1.7 1.2-.3.7-1 1.3-1.6 1.2-.7-.1-2.1-.2-3.2-.3-2.8-.2-2.5-3.3.6-7.1 1.5-1.7 2.3-3.4 1.9-3.8-.4-.4-1-.1-1.2.5-.3.7-.9 1.3-1.4 1.3-1 0-1.2-3.3-.2-4.3 1-1.1 3.8-.8 5.1.5zM97 224.9c1.2 2.3-.7 4.2-2.1 2-.4-.7-1.2-1-1.6-.5-.4.4.4 1.7 2 2.8 4.9 3.6 2.8 10.5-2.4 7.8-1-.6-1.9-1.7-1.9-2.5 0-1.8 2.7-2 3.2-.3.3.9.6.9 1.1 0 .5-.6-.3-1.8-1.8-2.8-2.4-1.6-3.5-6.1-1.8-7.7 1.3-1.4 4.3-.7 5.3 1.2zm90.3.1c-.1.8-.4 4.1-.8 7.2-.7 5.9-2.7 7.9-3.8 3.7-.3-1.2-1-1.8-1.6-1.4-1.7 1-1.3-1.9.9-7 1.5-3.4 2.5-4.6 3.7-4.3 1 .2 1.7 1 1.6 1.8zm-98.8 8c.1 1.4.5 3.5.9 4.7.6 2 .4 2.3-1.8 2.3-3.5 0-3.9-1.2-2.4-7.5 1-4.3 1.4-5.1 2.2-3.8.5 1 1 2.9 1.1 4.3zm-23.7-2.1c1 .6.6 1.1-1.7 1.9-4.4 1.6-5.9 5.3-3.8 9.7 2.2 4.7 6.1 7 11.7 6.9 4.9 0 10-2.7 10-5.1 0-1.2.3-1.3 1.3-.4 1 .8 3.3.7 8.7-.5 4-.8 7.4-1.3 7.6-1.2.6.6-14 11.1-18 12.9-7.6 3.4-19 1.6-23.8-3.7-2.9-3.3-5-9.5-4.4-12.9 1.1-5.8 8.3-10.2 12.4-7.6zm155.2.6c3.8 2 5 4.3 5 9.8 0 11.4-14 19-26.7 14.4-3.4-1.3-19.7-12.7-19-13.3.2-.3 3.7.3 7.7 1.1 5.2 1.1 7.6 1.2 8 .5.4-.7 1.3-.1 2.3 1.4 1 1.5 3.3 3 5.9 3.7 8.1 2.1 15.8-2.5 15.8-9.7 0-3.7-1.9-6.1-5.8-7.1-2.4-.6-2.5-.7-.7-1.4 3-1.1 4.3-1 7.5.6zm-27.6 1.7c1.3 5 .7 6.8-2 6.8-2.1 0-2.5-.4-1.9-1.8.3-.9.9-2.9 1.2-4.5.7-3.3 1.9-3.5 2.7-.5zm-57.6 12.3c1.7 3.6 3.7 6.5 4.2 6.5.6 0 2.4-2.9 4.1-6.3l2.9-6.4 10.3.5c5.6.2 10.6.8 11.2 1.3.5.6.4.9-.3.9-2.2 0-6.2 4.8-6.2 7.4 0 2.3-.4 2.5-3.9 2.3-2.2 0-4.9.6-6.4 1.6-2.6 1.7-9.9 10.2-11.1 12.9-.4.9-.9.8-1.8-.6-7.3-10.8-11-13.9-16.7-13.9-3.4 0-4.1-.3-4.1-1.9 0-1.1-1.6-3.6-3.5-5.5s-3.5-3.7-3.5-3.9c0-.2 3.9-.5 8.8-.7 4.8-.1 9.6-.4 10.7-.5 1.6-.2 2.8 1.2 5.3 6.3zm8-5.8-1.8 4.5c-.8 2.1-1.7 3.8-2 3.8-.7 0-4-6.6-4-8 0-.6 1.8-1 4.1-1 2.2 0 3.9.3 3.7.7z"/><path d="M161.8 224.6c-.5.4-.8 2.5-.8 4.8 0 2.8.3 3.7 1.1 2.9.6-.6.9-2.7.7-4.8-.2-2-.6-3.3-1-2.9zM21 214c0 2.7.3 3 3 3s3-.3 3-3-.3-3-3-3-3 .3-3 3zM251 214c0 2.7.3 3 3 3s3-.3 3-3-.3-3-3-3-3 .3-3 3zM240 214c0 .5 1.8.7 4.3.4 5.8-.8 6-1.4.4-1.4-2.6 0-4.7.4-4.7 1z"/></svg>